# xmcd
#
# Track frame offsets:
#	150
#	14888
#	29688
#	44973
#	59974
#	73831
#	86955
#	102857
#	117353
#	130245
#	142818
#	155062
#	165388
#	180028
#	193695
#	205983
#	220219
#	234390
#	247617
#	261011
#	275765
#	289348
#	305308
#	321993
#	336288
#
# Disc length: 4682 seconds
#
# Revision: 1
# Processed by: cddbd v1.5.2PL0 Copyright (c) Steve Scherf et al.
# Submitted via: audiograbber 1.83.01
#
DISCID=8a124819
DTITLE=Billie Holiday - 2009 - 101 Hits CD4
DYEAR=2009
DGENRE=Blues
TTITLE0=Embraceable You
TTITLE1=Lover man
TTITLE2=Tenderly
TTITLE3=Georgia on my mind
TTITLE4=If my heart could only talk
TTITLE5=I must have that man
TTITLE6=I'll be seeing you
TTITLE7=I cried for you
TTITLE8=Forget if you can
TTITLE9=No more
TTITLE10=I've got a date with a dream
TTITLE11=Please keep me in your dreams
TTITLE12=I'll look around
TTITLE13=My old flame
TTITLE14=Here it is tomorrow again
TTITLE15=God bless the child
TTITLE16=I'm all for you
TTITLE17=Let's do it
TTITLE18=There is no greater love
TTITLE19=I'm yours
TTITLE20=It's easy to blame the weather
TTITLE21=Do nothin' till you hear from me
TTITLE22=Autumn in New York
TTITLE23=Solitude
TTITLE24=My sweet hunk o'trash
EXTD=
EXTT0=
EXTT1=
EXTT2=
EXTT3=
EXTT4=
EXTT5=
EXTT6=
EXTT7=
EXTT8=
EXTT9=
EXTT10=
EXTT11=
EXTT12=
EXTT13=
EXTT14=
EXTT15=
EXTT16=
EXTT17=
EXTT18=
EXTT19=
EXTT20=
EXTT21=
EXTT22=
EXTT23=
EXTT24=
PLAYORDER=
